<svg xmlns="http://www.w3.org/2000/svg">
  <symbol id="facebook" viewBox="0 0 10 14">
    <path fill-opacity="0.8" d="M8.12011 0H5.90554C4.92663 0 3.98782 0.366647 3.29563 1.01928C2.60344 1.67192 2.21458 2.55708 2.21458 3.48005V5.56808H0V8.35212H2.21458V13.9202H5.16734V8.35212H7.38192L8.12011 5.56808H5.16734V3.48005C5.16734 3.29546 5.24512 3.11842 5.38356 2.9879C5.52199 2.85737 5.70976 2.78404 5.90554 2.78404H8.12011V0Z"/>
  </symbol>

  <symbol id="x" viewBox="0 0 18 16">
    <path d="M15.262 3.85677C15.2734 4.02564 15.2734 4.19451 15.2734 4.36479C15.2824 5.82552 15.032 7.2737 14.5367 8.6252C14.0414 9.9767 13.3111 11.2046 12.3881 12.2375C11.4652 13.2704 10.3681 14.0878 9.16057 14.6421C7.95301 15.1965 6.65907 15.4767 5.35391 15.4666C3.45573 15.4721 1.59656 14.8637 0 13.7146C0.27974 13.7489 0.561035 13.7649 0.842443 13.7624C2.41151 13.7666 3.9361 13.1792 5.17033 12.0948C4.44294 12.0798 3.7379 11.8109 3.15362 11.3258C2.56935 10.8407 2.135 10.1634 1.91121 9.38869C2.12917 9.42732 2.34941 9.44754 2.57008 9.4492C2.87979 9.44843 3.18818 9.40399 3.48796 9.31692C2.69815 9.13872 1.98785 8.65988 1.47782 7.96181C0.967797 7.26374 0.689519 6.38952 0.6903 5.48778V5.43993C1.17218 5.7427 1.71113 5.91387 2.26328 5.93951C1.52355 5.38705 1.00003 4.53952 0.799553 3.56983C0.599073 2.60014 0.736734 1.58138 1.18445 0.721409C2.06029 1.92736 3.1528 2.91385 4.39116 3.61689C5.62952 4.31994 6.98608 4.72385 8.37287 4.80245C8.3168 4.50867 8.28773 4.20924 8.28611 3.90884C8.28545 3.12534 8.49538 2.35973 8.88862 1.71152C9.28185 1.06332 9.84022 0.562482 10.4911 0.274116C11.142 -0.0142498 11.8554 -0.0768131 12.5385 0.0945589C13.2216 0.265931 13.8429 0.663316 14.3215 1.23506C15.1024 1.06662 15.8512 0.747589 16.5345 0.292196C16.2746 1.19391 15.7296 1.95848 15.0018 2.44248C15.6955 2.35485 16.3737 2.15135 17.0136 1.83877C16.5354 2.61702 15.9432 3.29928 15.262 3.85677Z"/>
  </symbol>

  <symbol id="linkedin" viewBox="0 0 18 19">
    <path d="M3.82447 18.5603H0.301024V6.16941H3.82447V18.5603ZM2.05967 4.4786C1.65413 4.48059 1.25716 4.3512 0.918955 4.10679C0.58075 3.86239 0.316502 3.51395 0.159626 3.10554C0.00275049 2.69712 -0.0397066 2.24708 0.0376238 1.81231C0.114954 1.37755 0.308599 0.977589 0.59407 0.663012C0.879542 0.348436 1.24402 0.133372 1.64141 0.0450154C2.0388 -0.043341 2.45126 -0.00102111 2.82663 0.166624C3.202 0.334268 3.52342 0.619708 3.75024 0.986848C3.97707 1.35399 4.09911 1.78634 4.10094 2.22923C4.10136 2.82246 3.88702 3.39182 3.50464 3.81318C3.12227 4.23454 2.60286 4.47373 2.05967 4.4786ZM17.009 18.5586H13.4932V12.52C13.4932 11.0825 13.4671 9.23902 11.6608 9.23902C9.82845 9.23902 9.54891 10.8007 9.54891 12.416V18.5502H6.03007V6.16941H9.40914V7.86021H9.45829C9.7958 7.22766 10.2843 6.70708 10.8716 6.35405C11.4588 6.00101 12.1229 5.82878 12.7928 5.85573C16.3577 5.85573 17.0136 8.42046 17.0136 11.7501V18.5569L17.009 18.5586Z"/>
  </symbol>

  <symbol id="instagram" viewBox="0 0 18 17">
    <path d="M4.50558 0.662598H12.1852C12.6898 0.662598 13.1895 0.762651 13.6557 0.957047C14.122 1.15144 14.5456 1.43637 14.9024 1.79557C15.2592 2.15476 15.5423 2.58119 15.7354 3.0505C15.9285 3.51981 16.0279 4.02281 16.0279 4.53079V12.2613C16.0279 12.7693 15.9285 13.2723 15.7354 13.7416C15.5423 14.2109 15.2592 14.6373 14.9024 14.9965C14.5456 15.3557 14.122 15.6406 13.6557 15.835C13.1895 16.0294 12.6898 16.1295 12.1852 16.1295H4.50558C3.48642 16.1295 2.50901 15.7219 1.78835 14.9965C1.0677 14.2711 0.662842 13.2872 0.662842 12.2613V4.53079C0.662842 3.50488 1.0677 2.52099 1.78835 1.79557C2.50901 1.07014 3.48642 0.662598 4.50558 0.662598Z" fill="none" stroke-width="2" stroke-linecap="round" stroke-linejoin="round"/>
    <path d="M11.4171 7.90749C11.5119 8.55107 11.4027 9.20836 11.105 9.78586C10.8073 10.3634 10.3363 10.8317 9.75895 11.1242C9.18162 11.4167 8.52736 11.5185 7.88923 11.4151C7.2511 11.3118 6.6616 11.0085 6.20457 10.5484C5.74754 10.0884 5.44626 9.49496 5.34357 8.85261C5.24089 8.21025 5.34203 7.55166 5.63261 6.9705C5.92319 6.38934 6.38842 5.91521 6.96212 5.61555C7.53582 5.31589 8.18878 5.20595 8.82813 5.30138C9.48031 5.39872 10.0841 5.70462 10.5503 6.17392C11.0165 6.64321 11.3204 7.25099 11.4171 7.90749Z" fill="none" stroke-width="2" stroke-linecap="round" stroke-linejoin="round"/>
  </symbol>
</svg>
